<?xml version="1.0" encoding="UTF-8" standalone="no"?>
<!DOCTYPE svg PUBLIC "-//W3C//DTD SVG 1.1//EN" "http://www.w3.org/Graphics/SVG/1.1/DTD/svg11.dtd">
<svg width="100%" height="100%" viewBox="0 0 916 257" version="1.1" xmlns="http://www.w3.org/2000/svg" xmlns:xlink="http://www.w3.org/1999/xlink" xml:space="preserve" xmlns:serif="http://www.serif.com/" style="fill-rule:evenodd;clip-rule:evenodd;stroke-linecap:round;stroke-linejoin:round;stroke-miterlimit:1.5;">
    <g id="bg" transform="matrix(1,0,0,1,-50,-409.506822)">
        <path d="M423.353,490.784C423.353,490.784 438.572,417.025 527,416C598.612,415.17 566.667,475.448 584.503,475.5C590.342,475.517 593.234,470.75 615,472C631.886,472.97 640,485 640,485C640,485 651.38,463.931 691,463C710.463,462.543 728,470 728,470C728,470 732.634,465.168 747,465C759.67,464.852 768,472 768,472C768,472 774.976,465.356 795,466C808.366,466.43 816,473 816,473C816,473 822.307,467.298 843,468C858.742,468.534 868,480.571 868,480.571C868,480.571 879.44,468.878 907,469C933.501,469.117 960.407,487.979 961,512C961.502,532.327 950,541 950,541C950,541 957.663,548.172 956,562.629C953.37,585.494 936.534,599.66 910,608.525C884.363,617.09 847,604 847,604C847,604 840.028,608.323 828,608C809.313,607.498 801,595 801,595C801,595 789.001,601.121 777,601.018C763.999,600.907 753,595 753,595C753,595 742.797,601.226 733,601.018C716.663,600.671 708,589 708,589C708,589 703.874,595.627 691,596C680.262,596.311 674,590 674,590C674,590 662.328,598.709 651,599C636.663,599.368 631.157,595.635 618,592C606.736,588.888 590.904,593.997 580,602.018C565.5,612.685 570.821,663.244 531,660C496.41,657.182 507,615 507,615C507,615 466.883,621.379 452,620.235C419.377,617.729 409,601 409,601C409,601 397.01,623.142 390,632C381.291,643.005 371.696,658.164 346,658C322.112,657.848 310.936,641.361 311.098,627.925C311.349,607.164 328,599 328,599C328,599 314.219,602.948 310.885,601.448C307.59,599.966 302,595 302,595C302,595 293.568,613.976 275,613C250.407,611.707 251,598 251,598C251,598 240.836,616.032 221,614C203.001,612.156 200,598 200,598C200,598 182.81,617.659 154.978,627.01C129.997,635.404 103.653,633.062 84,617C64.545,601.101 55.468,576.603 58,550.291C60.944,519.695 78.42,486.739 106,465C142.014,436.613 177.814,440.659 195,446.702C217.822,454.727 222.381,472.239 228,483C233.154,492.871 243.5,501.177 258.713,500.267C277.524,499.142 278.791,489.888 293.347,490.295C305.203,490.627 311,498 311,498C311,498 328.809,448.692 354.311,437.948C370.136,431.281 380.547,436.699 385,446.702C391.813,462.008 365,489 365,489C365,489 375.609,488.238 382.23,491.827C389.986,496.031 394,502 394,502C394,502 399.294,490.693 423.353,490.784Z" style="fill:url(#_Linear1);stroke:black;stroke-width:1.5px;"/>
    </g>
    <g id="AMS" transform="matrix(1,0,0,1,-50,-409)">
        <path d="M699,493C699,493 702.155,489.344 702.947,487.337C704.552,483.265 702.631,480.572 702.631,480.572C702.631,480.572 724.947,480.355 725,486C725.118,498.667 700.333,543.167 705,556C705.693,557.906 709.042,557.527 711,557C715.333,555.833 721.482,551.1 725,543C732.83,524.973 736.102,512.603 738,496C738.733,489.586 735,486 735,486C735,486 740.565,481.667 748,482C754.679,482.299 759.817,483.649 762,492C763.991,499.614 757,517 757,517C757,517 773.664,482.556 793,482C804.127,481.68 808.333,488.167 809,495C809.589,501.038 805,516 805,516C805,516 822.165,483.814 842,484C855.556,484.127 858.907,492.443 858,500C856.392,513.405 831.779,562.478 842,564C848.714,565 849.11,556.938 858,553C866.741,549.128 874,552 874,552C874,552 859.319,573.294 888,573C897.679,572.901 903.914,569.871 904,559C904.105,545.666 865.308,542.181 866,516C866.348,502.834 879.923,486.503 908,486C921.008,485.767 943.5,491.5 943,507C942.762,514.379 938.621,525.091 929,525C919.233,524.907 918,520 918,520C918,520 929.686,505.325 911,505C905.312,504.901 896.063,508.8 896,516C895.856,532.334 933.328,532.63 934,558C934.407,573.351 916.054,589.479 889,590C852.982,590.693 850,569 850,569C850,569 842.536,582.307 825,582C804.711,581.645 811.114,553.796 822.254,533.853C827.808,523.911 826,514 826,514C826,514 812.279,525.356 803.29,539.911C794.316,554.443 793.079,569.171 785,577C780.065,581.782 748.365,581.917 775.823,532.318C781.505,522.054 779,510 779,510C779,510 773.066,513.675 753.026,545.462C740.459,565.395 747.647,578.098 732,578C713.148,577.882 719,559 719,559C719,559 711.388,573.945 696,574C676.666,574.069 682,554 682,554C682,554 663.667,579.149 647,579C637.332,578.913 629.362,572.629 630,553C630.953,523.665 654.333,482 683,482C695.749,482 699,493 699,493ZM689,501C673.962,500.533 664.482,519.329 660,529C654.614,540.621 651.934,558.401 661,558C671.97,557.515 677.577,543.553 684,530C688.523,520.456 698.991,501.31 689,501Z" style="fill:url(#_Linear2);"/>
    </g>
    <g id="P" transform="matrix(1,0,0,1,-50,-409)">
        <path d="M558,492C560.384,487.361 575.408,486.857 579,490C583,493.5 581,511 581,511C581,511 589.809,487.207 609,487C622.17,486.858 630.474,494.635 630,515C629.581,533.014 611.834,582.111 581,582C572.037,581.968 565,573 565,573C565,573 551,623.333 547,634C546.156,636.251 543.374,637.625 541,638C537.833,638.5 531.167,638.333 528,637C525.168,635.807 521.363,633.007 522,630C525,615.833 532.943,593.662 541,571C549.422,547.312 552.707,530.833 554.48,519.508C556.586,506.054 556.407,495.1 558,492ZM603,508C595.28,505.978 584.5,525.167 579,534C573.986,542.053 564.391,562.827 575,562.629C585.254,562.437 593.615,552.156 600,539C607.584,523.374 607.414,509.156 603,508Z" style="fill:url(#_Linear3);"/>
    </g>
    <g id="S" transform="matrix(1,0,0,1,-50,-409)">
        <path d="M518,490C518,490 520.482,497 533,497C549.167,497 560.667,474.167 561,460C561.266,448.713 555.113,431.229 525,431C469.995,430.582 440.847,474.459 441,496C441.289,536.785 505.523,523.164 505,553C504.676,571.493 475.864,580.381 467,580C448.624,579.21 446.921,572.397 447,567C447.167,555.667 462,548 462,548C462,548 445.779,548.391 436,554C426.067,559.697 420,565.833 420,580C420,600.001 437.002,607.601 457,608C500.563,608.869 539.113,578.647 539,545C538.864,504.769 478.497,513.511 478,491C477.524,469.443 503.331,457.033 519,457C530.011,456.977 530.641,462.913 530.564,465.105C530.258,473.818 518,490 518,490Z" style="fill:url(#_Linear4);"/>
    </g>
    <g id="nly" transform="matrix(1,0,0,1,-50,-409)">
        <path d="M228,515C228,515 235.045,508.638 244,510C254.914,511.66 251,521 251,521L241,551C241,551 259.912,528.825 267.201,519.854C273.416,512.205 281.68,503.177 290,504C295.039,504.499 298.356,509.921 299,514C300.639,524.384 294.415,534.578 287.937,547.531C280.843,561.718 280.044,572.017 280,578C279.972,581.867 280.696,586.707 287,583C291.827,580.162 298.907,575.201 302,565C304.238,557.618 310.07,536.793 324,502C340.638,460.441 348.773,453.279 355,449C359.52,445.894 364.229,446.329 368,448C370.72,449.205 372.79,451.635 373,454C373.619,460.974 358.851,466.751 336,519C318.834,558.25 318.265,569.392 320,574C321.218,577.234 324.034,578.832 327,579C331.314,579.244 334.997,578.978 347,556C353.465,543.623 361.024,526.808 361,514C360.983,505.114 360,501 360,501C360,501 365.101,499.55 373,501C380.093,502.302 384.129,504.738 384,507C383.883,509.068 377.5,516 370,539C366.917,548.454 363,566 363,566C363,566 361.564,571.255 364.815,572.815C370.168,575.384 378.017,568.701 390,546C407.949,511.996 403.095,507.941 404,504C404.806,500.492 411.695,500.759 415,501C418.491,501.254 424.876,500.983 425,505C425.138,509.482 421.112,523.321 417.668,533.981C414.168,544.814 406,566 406,566C406,566 411.378,565.632 419.265,557.29C429.471,546.496 439,547.57 439,547.57C439,547.57 431.082,550.429 425.178,560.769C418.884,571.796 406.225,572.351 402,579C395.304,589.538 391.04,610.061 379,626C370.283,637.539 358.996,645.083 351,647C342.966,648.926 334.838,647.584 330,644C324.752,640.113 320.456,633.508 324,623C326.631,615.197 341.082,603.994 352,597C362.667,590.167 380.833,583 388,576C393.279,570.844 395,555 395,555C395,555 386.167,566.333 380,573C375.79,577.552 370.635,583.277 360,583C348.561,582.702 347,570 347,570C347,570 336.689,589.965 324,590C308.267,590.044 304,573 304,573C304,573 295.206,590.758 281,595C276.565,596.324 271.023,595.45 268,593C258.333,585.167 265.505,563.944 268.681,552.706C271.166,543.914 279,525 279,525C279,525 258,538.167 245,556C237.961,565.656 233.258,576.259 231,584C228.419,592.848 234,599 234,599C234,599 223.812,602.974 219,600C210.954,595.027 213.549,584.201 217,576C220.121,568.585 223.587,562.19 225,549C228.315,518.064 228,515 228,515ZM383.5,588C383.5,588 340.715,617.592 336,623C328,632.175 331.497,640 339.5,640C347.503,640 355.01,634.633 366,619C376.941,603.437 383.5,588 383.5,588Z" style="fill:white;"/>
    </g>
    <g id="O-middle" serif:id="O middle" transform="matrix(1,0,0,1,-50,-410)">
        <path d="M122.463,536.599C127.318,528.001 136.451,521.383 152.021,511.375C152.165,514.765 147.692,518.147 154.868,520.756C164.499,524.257 170.738,532.389 167.08,544.601C160.346,567.088 140.548,571.254 129.511,564.312C120.046,558.358 116.874,546.498 122.463,536.599Z" style="fill:rgb(254,254,254);"/>
    </g>
    <g id="O" transform="matrix(0.911111,0,-0.240024,0.885542,136.637487,-347.036145)">
        <ellipse cx="97.5" cy="537" rx="67.5" ry="83" style="fill:none;stroke:white;stroke-width:22.91px;"/>
    </g>
    <defs>
        <linearGradient id="_Linear1" x1="0" y1="0" x2="1" y2="0" gradientUnits="userSpaceOnUse" gradientTransform="matrix(903.431626,0,0,244.031412,57.58434,538.007204)"><stop offset="0" style="stop-color:rgb(0,93,166);stop-opacity:1"/><stop offset="0.19" style="stop-color:rgb(0,120,199);stop-opacity:1"/><stop offset="0.38" style="stop-color:rgb(0,129,209);stop-opacity:1"/><stop offset="0.46" style="stop-color:rgb(0,93,151);stop-opacity:1"/><stop offset="0.55" style="stop-color:rgb(0,8,14);stop-opacity:1"/><stop offset="1" style="stop-color:black;stop-opacity:1"/></linearGradient>
        <linearGradient id="_Linear2" x1="0" y1="0" x2="1" y2="0" gradientUnits="userSpaceOnUse" gradientTransform="matrix(0,-304,120.471759,0,692,632)"><stop offset="0" style="stop-color:rgb(254,156,8);stop-opacity:1"/><stop offset="0.32" style="stop-color:rgb(253,180,21);stop-opacity:1"/><stop offset="0.32" style="stop-color:rgb(254,232,155);stop-opacity:1"/><stop offset="1" style="stop-color:rgb(254,254,254);stop-opacity:1"/></linearGradient>
        <linearGradient id="_Linear3" x1="0" y1="0" x2="1" y2="0" gradientUnits="userSpaceOnUse" gradientTransform="matrix(0,-304,120.471759,0,692,632)"><stop offset="0" style="stop-color:rgb(254,156,8);stop-opacity:1"/><stop offset="0.32" style="stop-color:rgb(253,180,21);stop-opacity:1"/><stop offset="0.32" style="stop-color:rgb(254,232,155);stop-opacity:1"/><stop offset="1" style="stop-color:rgb(254,254,254);stop-opacity:1"/></linearGradient>
        <linearGradient id="_Linear4" x1="0" y1="0" x2="1" y2="0" gradientUnits="userSpaceOnUse" gradientTransform="matrix(0,-304,120.471759,0,692,632)"><stop offset="0" style="stop-color:rgb(254,156,8);stop-opacity:1"/><stop offset="0.32" style="stop-color:rgb(253,180,21);stop-opacity:1"/><stop offset="0.32" style="stop-color:rgb(254,232,155);stop-opacity:1"/><stop offset="1" style="stop-color:rgb(254,254,254);stop-opacity:1"/></linearGradient>
    </defs>
</svg>
